<svg width="128" height="128" viewBox="0 0 128 128" fill="none" xmlns="http://www.w3.org/2000/svg">
<path d="M36.8498 31.2671C36.5242 34.0388 34.3704 57.9818 55.5752 66.0296C55.6253 66.0463 55.6586 66.1048 55.6419 66.1632C55.3832 67.0899 53.5298 74.4865 59.2818 77.2331C59.3403 77.2582 59.3236 77.35 59.2568 77.35C57.9461 77.4418 51.8435 78.0429 50.5161 81.1902C50.4994 81.2236 50.4576 81.2403 50.4242 81.2236C48.7963 80.322 16.2795 61.8638 36.7329 31.2254C36.7747 31.167 36.8582 31.2004 36.8498 31.2671Z" fill="#FAC200"/>
<path d="M95.58 91.993C94.0356 90.1814 93.6098 87.6686 93.5764 87.4932C93.5764 87.4849 93.5764 87.4765 93.5764 87.4765C90.9717 76.8575 81.7385 81.1402 79.977 82.0668C79.81 82.1753 79.643 82.2839 79.4677 82.3924C75.2685 85.5397 68.9989 89.4217 67.8468 90.1313C67.7383 90.1981 67.7049 90.34 67.7717 90.4486C69.5666 93.287 81.8887 97.3359 83.1994 97.7534C83.2662 97.7784 83.3497 97.7617 83.4081 97.72C84.076 97.2191 88.2251 94.2387 92.583 94.1218C97.3332 93.9966 95.58 91.993 95.58 91.993ZM85.2197 92.3019C82.6568 92.3019 80.5697 90.5487 80.5697 88.3782C80.5697 86.2076 82.6484 84.4544 85.2197 84.4544C87.791 84.4544 89.8698 86.2076 89.8698 88.3782C89.8698 90.5487 87.7827 92.3019 85.2197 92.3019Z" fill="#FAC200"/>
<path d="M90.2793 31C90.2793 31 94.1196 57.5477 71.4956 66.063C71.4956 66.063 75.6197 77.7257 63.0971 76.5569C63.0971 76.5569 62.8634 78.3268 59.6242 79.195C59.6242 79.195 57.437 81.7412 54.3147 81.7997C53.5967 82.0585 53.1626 82.1753 53.1626 82.1753C50.3242 83.0937 45.9413 81.4824 45.9413 81.4824C42.8023 80.1884 35.7981 78.4436 33.5857 87.4849C33.5857 87.4849 33.185 90.1146 31.5821 91.993C31.5821 91.993 29.829 93.9966 34.5875 94.1218C39.3461 94.247 43.8542 97.7867 43.8542 97.7867C43.8542 97.7867 43.8792 97.7784 43.9126 97.7701C71.3203 89.0711 84.5023 77.5003 90.8136 68.8514C92.0408 67.2068 93.1846 65.4035 94.153 63.4584C96.2401 59.351 96.549 56.7045 96.549 56.7045C98.1017 49.5166 96.9497 40.8928 90.2793 31ZM41.8089 92.3019C39.2459 92.3019 37.1588 90.5487 37.1588 88.3782C37.1588 86.2076 39.2376 84.4544 41.8089 84.4544C44.3801 84.4544 46.4589 86.2076 46.4589 88.3782C46.4589 90.5487 44.3718 92.3019 41.8089 92.3019Z" fill="#FAC200"/>
<path fill-rule="evenodd" clip-rule="evenodd" d="M64 118C93.8234 118 118 93.8234 118 64C118 34.1766 93.8234 10 64 10C34.1766 10 10 34.1766 10 64C10 93.8234 34.1766 118 64 118ZM64 128C99.3462 128 128 99.3462 128 64C128 28.6538 99.3462 0 64 0C28.6538 0 0 28.6538 0 64C0 99.3462 28.6538 128 64 128Z" fill="#FAC200"/>
</svg>
